<!--
Icon created by Julien Deveaux from the Noun Project.
This icon is licensed as Creative Commons – Attribution (CC BY 3.0)
-->
<svg version="1.1" id="Layer_1" xmlns="http://www.w3.org/2000/svg" xmlns:xlink="http://www.w3.org/1999/xlink" x="0px" y="0px"
	 viewBox="-255 347 100 100" enable-background="new -255 347 100 100" xml:space="preserve">
<style>
path {
	fill: #888
}
</style>
<g id="simulator">
	<g>
		<g>
			<g>
				<path d="M-169.7,376.9h-70.1c-7.2,0-13,6.2-13,13.5v37.3h95.7v-37.3C-157.1,383.1-162.5,376.9-169.7,376.9z M-226.3,407.2
					c-4.7,0-8.6-3.9-8.6-8.7c0-4.8,3.8-8.7,8.6-8.7s8.6,3.9,8.6,8.7C-217.7,403.3-221.6,407.2-226.3,407.2z M-182.5,407.2
					c-4.7,0-8.6-3.9-8.6-8.7c0-4.8,3.8-8.7,8.6-8.7c4.7,0,8.6,3.9,8.6,8.7C-173.9,403.3-177.7,407.2-182.5,407.2z"/>
			</g>
		</g>
	</g>
	<g>
		<g>
			<g>
				<path d="M-234.7,431.2h59.2c1.7,0,3.1,1.4,3.1,3.1c0,1.7-1.4,3.1-3.1,3.1h-59.2c-1.7,0-3.1-1.4-3.1-3.1
					C-237.8,432.6-236.4,431.2-234.7,431.2z"/>
			</g>
		</g>
	</g>
	<g>
		<g>
			<g>
				<path d="M-224.7,440.3h39.7c1.7,0,3.1,1.4,3.1,3.1c0,1.7-1.4,3.1-3.1,3.1h-39.7c-1.7,0-3.1-1.4-3.1-3.1
					S-226.4,440.3-224.7,440.3z"/>
			</g>
		</g>
	</g>
	<g>
		<g>
			<g>
				<path d="M-197.8,353.4c0-3.5-2.7-6.4-6.2-6.4c-3.5,0-6,2.9-6,6.4c0,2.2,1,4.1,3,5.3v10.9c0,1.9,1.2,3.4,3,3.4c1.8,0,3-1.5,3-3.4
					v-10.7C-199,357.7-197.8,355.7-197.8,353.4z"/>
			</g>
		</g>
	</g>
</g>
</svg>
